<svg width="24" height="24" viewBox="0 0 24 24" fill="none" xmlns="http://www.w3.org/2000/svg">
<path d="M21 6C21 4.34315 19.6569 3 18 3H6C4.34315 3 3 4.34315 3 6V18C3 19.6569 4.34315 21 6 21H18C19.6569 21 21 19.6569 21 18V6ZM23 18C23 20.7614 20.7614 23 18 23H6C3.23858 23 1 20.7614 1 18V6C1 3.23858 3.23858 1 6 1H18C20.7614 1 23 3.23858 23 6V18Z" fill="#181923"/>
<path d="M13.3856 12.4316C14.2139 11.3825 15.8179 11.4255 16.5887 12.5176L21.8172 19.9229C22.1357 20.374 22.0281 20.9989 21.577 21.3174C21.1258 21.6359 20.501 21.5283 20.1825 21.0772L14.9549 13.6709L8.285 22.1201C7.94275 22.5535 7.31315 22.6273 6.87972 22.2852C6.44639 21.9429 6.37251 21.3133 6.71469 20.8799L13.3856 12.4316Z" fill="#181923"/>
<path d="M10 8.5C10 9.32843 9.32843 10 8.5 10C7.67157 10 7 9.32843 7 8.5C7 7.67157 7.67157 7 8.5 7C9.32843 7 10 7.67157 10 8.5Z" fill="#181923"/>
</svg>
