<svg width="24" height="24" viewBox="0 0 24 24" fill="none" xmlns="http://www.w3.org/2000/svg">
<path d="M20 12C20 7.58172 16.4183 4 12 4C7.58172 4 4 7.58172 4 12C4 16.4183 7.58172 20 12 20C13.2568 20 14.4432 19.7107 15.499 19.1963L15.8037 19.0479L16.1348 19.1152L19.2783 19.7471L18.8428 16.1592L19.001 15.875C19.6374 14.728 20 13.4078 20 12ZM22 12C22 13.6373 21.6046 15.1846 20.9053 16.5508L21.2637 19.5059C21.4277 20.8588 20.2199 21.9766 18.8838 21.708L16.0605 21.1396C14.8185 21.6922 13.4441 22 12 22C6.47715 22 2 17.5228 2 12C2 6.47715 6.47715 2 12 2C17.5228 2 22 6.47715 22 12Z" fill="#181923"/>
</svg>
