<svg width="24" height="24" viewBox="0 0 24 24" fill="none" xmlns="http://www.w3.org/2000/svg">
<path d="M14.5002 14.5C15.8228 14.5 16.7059 14.4888 17.4513 14.7148C19.0493 15.1996 20.3006 16.4508 20.7853 18.0488C20.9086 18.4554 20.9571 18.8765 20.9796 19.3525C20.9914 19.6015 21.0044 19.8538 20.9953 20.0703C20.9853 20.305 20.9478 20.5728 20.8185 20.8486C20.6366 21.2369 20.3198 21.5685 19.9406 21.7686C19.6642 21.9143 19.3887 21.9624 19.1535 21.9824C18.9316 22.0013 18.6683 22 18.4005 22H5.59977C5.33202 22 5.06875 22.0013 4.84684 21.9824C4.61164 21.9624 4.33607 21.9143 4.05973 21.7686C3.68051 21.5685 3.36376 21.2369 3.1818 20.8486C3.05254 20.5728 3.01497 20.305 3.00504 20.0703C2.99588 19.8538 3.0089 19.6015 3.02066 19.3525C3.04317 18.8765 3.0917 18.4554 3.215 18.0488C3.69975 16.4508 4.95098 15.1996 6.54898 14.7148C7.29444 14.4888 8.17756 14.5 9.50016 14.5H14.5002ZM9.50016 16.5C8.03184 16.5 7.51913 16.5106 7.12906 16.6289C6.17037 16.9198 5.41993 17.6702 5.12906 18.6289C5.07466 18.8082 5.03783 19.0428 5.01871 19.4473C5.00529 19.7312 4.99863 19.8792 5.00309 19.9854V19.9873C5.00711 19.9877 5.01129 19.9889 5.01578 19.9893C5.13351 19.9993 5.29778 20 5.59977 20H18.4005C18.7025 20 18.8668 19.9993 18.9845 19.9893C18.9887 19.9889 18.9925 19.9877 18.9963 19.9873L18.9972 19.9854C19.0017 19.8792 18.995 19.7312 18.9816 19.4473C18.9625 19.0428 18.9256 18.8082 18.8713 18.6289C18.5804 17.6702 17.8299 16.9198 16.8713 16.6289C16.4812 16.5106 15.9685 16.5 14.5002 16.5H9.50016ZM15.5002 7.5C15.5002 5.567 13.9332 4 12.0002 4C10.0672 4 8.50016 5.567 8.50016 7.5C8.50016 9.433 10.0672 11 12.0002 11C13.9332 11 15.5002 9.433 15.5002 7.5ZM17.5002 7.5C17.5002 10.5376 15.0377 13 12.0002 13C8.96259 13 6.50016 10.5376 6.50016 7.5C6.50016 4.46243 8.96259 2 12.0002 2C15.0377 2 17.5002 4.46243 17.5002 7.5Z" fill="#181923"/>
</svg>
