<svg width="24" height="24" viewBox="0 0 24 24" fill="none" xmlns="http://www.w3.org/2000/svg">
<path d="M20 12C20 7.58173 16.4183 4 12 4C7.58171 4 4 7.58173 4 12C4 16.4183 7.58171 20 12 20C16.4183 20 20 16.4183 20 12ZM22 12C22 17.5229 17.5229 22 12 22C6.47714 22 2 17.5229 2 12C2 6.47716 6.47714 2 12 2C17.5229 2 22 6.47716 22 12Z" fill="#181923"/>
<path d="M11 7C11 6.44772 11.4477 6 12 6C12.5523 6 13 6.44772 13 7V11.3818L15.876 12.8203C16.3696 13.0673 16.5699 13.6673 16.3232 14.1611C16.0763 14.6551 15.4754 14.8554 14.9814 14.6084L11.5527 12.8945C11.214 12.7251 11 12.3788 11 12V7Z" fill="#181923"/>
</svg>
