<svg width="24" height="24" viewBox="0 0 24 24" fill="none" xmlns="http://www.w3.org/2000/svg">
<path transform="translate(1.38405 1.38405)" fill-rule="evenodd" clip-rule="evenodd" d="M19.2702 0.083489C19.4534 0.0302782 19.8219 -0.065335 20.2176 0.0668792C20.6648 0.216257 21.0157 0.567162 21.1651 1.01431C21.2973 1.41008 21.2017 1.77854 21.1484 1.96172C21.0905 2.16135 20.9976 2.39927 20.9044 2.63798L14.2869 19.5951L14.2869 19.5952C14.1828 19.862 14.082 20.1204 13.9834 20.3198C13.8982 20.4922 13.7085 20.8585 13.3149 21.063C12.8808 21.2885 12.3641 21.2882 11.9303 21.0622C11.5369 20.8573 11.3477 20.4907 11.2626 20.3182C11.1643 20.1187 11.0638 19.8601 10.96 19.5932L8.88469 14.2567L14.3726 6.85937L6.97595 12.3475L1.67405 10.2857L1.63879 10.272C1.37183 10.1682 1.11329 10.0677 0.913692 9.96928C0.741235 9.88426 0.374675 9.69501 0.169726 9.30164C-0.0562872 8.86784 -0.0565912 8.35109 0.168911 7.91703C0.373398 7.52342 0.739735 7.33374 0.912092 7.24851C1.11157 7.14988 1.37 7.04907 1.63684 6.94498L1.67208 6.93123L18.5939 0.327573C18.8326 0.234372 19.0706 0.141478 19.2702 0.083489Z" fill="currentColor"/>
</svg>
